<?xml version="1.0" standalone="no"?><!DOCTYPE svg PUBLIC "-//W3C//DTD SVG 1.1//EN" "http://www.w3.org/Graphics/SVG/1.1/DTD/svg11.dtd"><svg t="1726735705718" class="icon" viewBox="0 0 1024 1024" version="1.1" xmlns="http://www.w3.org/2000/svg" p-id="20591" width="120" height="120" xmlns:xlink="http://www.w3.org/1999/xlink"><path d="M904 512h-56c-4.4 0-8 3.6-8 8v320H184V184h320c4.4 0 8-3.6 8-8v-56c0-4.4-3.6-8-8-8H144c-17.7 0-32 14.3-32 32v736c0 17.7 14.3 32 32 32h736c17.7 0 32-14.3 32-32V520c0-4.4-3.6-8-8-8z m-256.332 48.486c-11.806-9.911-12.86-9.928-24.68-0.376L419.874 728.144l-0.349 0.289-0.321-0.319-109.44-108.461c-12.422-10.57-15.287-10.385-27.391 1.72l-142 142 45.253 45.254 112.777-110.784 0.347-0.34 0.35 0.337L419.9 814l214.496-179.284 0.314-0.262 0.32 0.256 219.394 175.799 41.15-49.018-247.906-201.005zM328 240c48.6 0 88 39.4 88 88s-39.4 88-88 88-88-39.4-88-88 39.4-88 88-88z m0 60c-15.5 0-28 12.5-28 28s12.5 28 28 28 28-12.5 28-28-12.5-28-28-28z" p-id="20592" fill="#c4c4c4"></path><path d="M750 128a8 8 0 0 1 8 8v170h60l-96 64-96-64h60V136a8 8 0 0 1 8-8h56zM546 384h352c8.837 0 16 7.163 16 16v32c0 8.837-7.163 16-16 16H546c-8.837 0-16-7.163-16-16v-32c0-8.837 7.163-16 16-16z" p-id="20593" fill="#c4c4c4"></path></svg>